# Blender v2.78 (sub 0) OBJ File: ''
# www.blender.org
mtllib bookPile.mtl
o Box01
v 0.376699 0.000000 -0.404263
v 0.376699 -0.000000 0.453264
v -0.180693 -0.000000 0.453264
v -0.180693 0.000000 -0.404263
v 0.376699 0.140879 -0.404263
v -0.180693 0.140879 -0.404263
v -0.180693 0.140879 0.453264
v 0.376699 0.140879 0.453264
v 0.361401 0.123555 0.437937
v -0.163328 0.123555 0.431629
v -0.163328 0.017325 0.431629
v 0.361401 0.017325 0.437937
v 0.361401 0.123555 -0.388935
v 0.361401 0.017325 -0.388936
v -0.163328 0.123555 -0.382627
v -0.163328 0.017325 -0.382627
v -0.206065 0.115339 0.453264
v -0.206065 0.115339 -0.404263
v -0.206065 0.025541 -0.404263
v -0.206065 0.025541 0.453264
v -0.172031 0.008662 -0.399932
v 0.373637 0.008662 -0.401200
v -0.172031 0.132217 -0.399932
v 0.373637 0.132217 -0.401200
v 0.373637 0.132217 0.450202
v -0.172031 0.132217 0.448933
v -0.172031 0.008662 0.448933
v 0.373637 0.008662 0.450202
v 0.236370 0.143017 -0.467804
v 0.491739 0.143016 0.350816
v -0.040364 0.143016 0.516806
v -0.295733 0.143016 -0.301815
v 0.236370 0.283896 -0.467804
v -0.295733 0.283896 -0.301815
v -0.040364 0.283896 0.516806
v 0.491739 0.283896 0.350816
v 0.472570 0.266571 0.340740
v -0.030230 0.266571 0.490981
v -0.030230 0.160341 0.490981
v 0.472570 0.160341 0.340740
v 0.226330 0.266571 -0.448617
v 0.226330 0.160341 -0.448617
v -0.272713 0.266571 -0.286332
v -0.272713 0.160341 -0.286332
v -0.064584 0.258355 0.524361
v -0.319953 0.258355 -0.294259
v -0.319953 0.168557 -0.294259
v -0.064584 0.168557 0.524361
v -0.286174 0.151679 -0.300260
v 0.234359 0.151679 -0.463969
v -0.286174 0.275234 -0.300260
v 0.234359 0.275234 -0.463969
v 0.487903 0.275233 0.348805
v -0.033385 0.275233 0.510092
v -0.033385 0.151679 0.510092
v 0.487903 0.151679 0.348805
v 0.510131 0.287294 -0.278253
v 0.207371 0.287293 0.524049
v -0.314125 0.287294 0.327255
v -0.011365 0.287294 -0.475047
v 0.510131 0.428173 -0.278253
v -0.011365 0.428173 -0.475047
v -0.314125 0.428173 0.327255
v 0.207371 0.428173 0.524049
v 0.198469 0.410848 0.504307
v -0.290240 0.410848 0.313144
v -0.290240 0.304618 0.313144
v 0.198469 0.304618 0.504307
v 0.490406 0.410848 -0.269315
v 0.490406 0.304618 -0.269315
v -0.002757 0.410848 -0.448674
v -0.002757 0.304618 -0.448674
v -0.337863 0.402632 0.318297
v -0.035103 0.402632 -0.484005
v -0.035103 0.312834 -0.484005
v -0.337863 0.312834 0.318297
v -0.004790 0.295956 -0.467937
v 0.506185 0.295956 -0.276469
v -0.004790 0.419511 -0.467937
v 0.506185 0.419511 -0.276469
v 0.205587 0.419511 0.520102
v -0.304491 0.419511 0.326261
v -0.304491 0.295956 0.326261
v 0.205587 0.295956 0.520102
v -0.211536 0.150917 0.416977
v -0.269489 0.150917 0.361318
v -0.282290 0.097534 0.366877
v -0.224338 0.097534 0.422536
v -0.184860 0.202368 0.411120
v -0.242813 0.202368 0.355461
v -0.162038 0.281803 0.417555
v -0.210573 0.302204 0.361897
v -0.125162 0.331004 0.379160
v -0.183115 0.331004 0.323501
vt 0.3512 0.9908
vt 0.0076 0.9908
vt 0.0076 0.7674
vt 0.3512 0.7674
vt 0.3512 0.4876
vt 0.3512 0.7110
vt 0.0076 0.7110
vt 0.0076 0.4876
vt 0.2533 0.4299
vt 0.3477 0.4299
vt 0.3477 0.4772
vt 0.2533 0.4772
vt 0.1044 0.4299
vt 0.1044 0.4772
vt 0.0100 0.4299
vt 0.0100 0.4772
vt 0.0076 0.7212
vt 0.3512 0.7212
vt 0.3512 0.7572
vt 0.0076 0.7572
vt 0.0194 0.6514
vt 0.0194 0.6514
vt 0.0194 0.6445
vt 0.0194 0.6445
vt 0.0167 0.9350
vt 0.0172 0.9753
vt 0.0424 0.9847
vt 0.0411 0.9263
vt 0.3402 0.6421
vt 0.3407 0.4935
vt 0.3419 0.4927
vt 0.3419 0.6445
vt 0.3402 0.6421
vt 0.3419 0.6445
vt 0.3407 0.4935
vt 0.3419 0.4927
vt 0.0205 0.4935
vt 0.0194 0.4927
vt 0.0210 0.6421
vt 0.0210 0.6421
vt 0.0205 0.4935
vt 0.0194 0.4927
vt 0.3337 0.6397
vt 0.3361 0.4968
vt 0.3337 0.6397
vt 0.3361 0.4968
vt 0.0252 0.4968
vt 0.0275 0.6397
vt 0.0275 0.6397
vt 0.0252 0.4968
vt 0.7235 0.9833
vt 0.3798 0.9833
vt 0.3798 0.7600
vt 0.7235 0.7600
vt 0.7235 0.4801
vt 0.7235 0.7035
vt 0.3798 0.7035
vt 0.3798 0.4801
vt 0.6255 0.4224
vt 0.7199 0.4224
vt 0.7199 0.4697
vt 0.6255 0.4697
vt 0.4767 0.4224
vt 0.4767 0.4697
vt 0.3822 0.4224
vt 0.3822 0.4697
vt 0.3798 0.7137
vt 0.7235 0.7137
vt 0.7235 0.7497
vt 0.3798 0.7497
vt 0.3916 0.6439
vt 0.3916 0.6439
vt 0.3916 0.6370
vt 0.3916 0.6370
vt 0.3889 0.9275
vt 0.3894 0.9678
vt 0.4146 0.9772
vt 0.4134 0.9188
vt 0.7125 0.6346
vt 0.7130 0.4860
vt 0.7141 0.4852
vt 0.7141 0.6370
vt 0.7125 0.6346
vt 0.7141 0.6370
vt 0.7130 0.4860
vt 0.7141 0.4852
vt 0.3928 0.4860
vt 0.3916 0.4852
vt 0.3933 0.6346
vt 0.3933 0.6346
vt 0.3928 0.4860
vt 0.3916 0.4852
vt 0.7060 0.6323
vt 0.7084 0.4893
vt 0.7060 0.6323
vt 0.7084 0.4893
vt 0.3974 0.4893
vt 0.3998 0.6323
vt 0.3998 0.6323
vt 0.3974 0.4893
vt 0.0093 0.3509
vt 0.0093 0.0073
vt 0.2327 0.0073
vt 0.2327 0.3509
vt 0.5125 0.3509
vt 0.2892 0.3509
vt 0.2892 0.0073
vt 0.5125 0.0073
vt 0.5702 0.2530
vt 0.5702 0.3474
vt 0.5229 0.3474
vt 0.5229 0.2530
vt 0.5702 0.1041
vt 0.5229 0.1041
vt 0.5702 0.0097
vt 0.5229 0.0097
vt 0.2789 0.0073
vt 0.2789 0.3509
vt 0.2429 0.3509
vt 0.2429 0.0073
vt 0.3488 0.0191
vt 0.3488 0.0191
vt 0.3557 0.0191
vt 0.3557 0.0191
vt 0.0651 0.0164
vt 0.0248 0.0169
vt 0.0155 0.0421
vt 0.0739 0.0409
vt 0.3580 0.3400
vt 0.5067 0.3404
vt 0.5075 0.3416
vt 0.3557 0.3416
vt 0.3580 0.3400
vt 0.3557 0.3416
vt 0.5067 0.3404
vt 0.5075 0.3416
vt 0.5067 0.0203
vt 0.5075 0.0191
vt 0.3580 0.0207
vt 0.3580 0.0207
vt 0.5067 0.0203
vt 0.5075 0.0191
vt 0.3604 0.3335
vt 0.5033 0.3358
vt 0.3604 0.3335
vt 0.5033 0.3358
vt 0.5033 0.0249
vt 0.3604 0.0272
vt 0.3604 0.0272
vt 0.5033 0.0249
vt 0.8841 0.5611
vt 0.7348 0.5611
vt 0.7348 0.4179
vt 0.8841 0.4179
vt 0.8841 0.7042
vt 0.7348 0.7042
vt 0.8841 0.8474
vt 0.7348 0.8474
vt 0.8841 0.9905
vt 0.7348 0.9905
vn 0.6634 -0.3744 -0.6478
vn 0.6634 -0.3744 0.6478
vn -0.2191 -0.6958 0.6840
vn -0.2191 -0.6958 -0.6840
vn 0.6634 0.3744 -0.6478
vn -0.2191 0.6958 -0.6840
vn -0.2191 0.6958 0.6840
vn 0.6634 0.3744 0.6478
vn 0.5209 -0.6941 0.4968
vn 0.4129 -0.4028 0.8169
vn 0.4129 0.4028 0.8169
vn 0.5209 0.6941 0.4968
vn 0.5209 -0.6941 -0.4968
vn 0.5209 0.6941 -0.4968
vn 0.4129 -0.4028 -0.8169
vn 0.4129 0.4028 -0.8169
vn -0.7176 0.2958 0.6305
vn -0.7176 0.2958 -0.6305
vn -0.7176 -0.2958 -0.6305
vn -0.7176 -0.2958 0.6305
vn 0.3437 0.3178 -0.8837
vn 0.5366 0.6701 -0.5128
vn 0.3437 -0.3178 -0.8837
vn 0.5366 -0.6701 -0.5128
vn 0.5366 -0.6701 0.5128
vn 0.3437 -0.3178 0.8837
vn 0.3437 0.3178 0.8837
vn 0.5366 0.6701 0.5128
vn 0.4404 -0.3744 -0.8160
vn 0.8262 -0.3744 0.4209
vn -0.0054 -0.6958 0.7182
vn -0.4128 -0.6958 -0.5877
vn 0.4404 0.3744 -0.8160
vn -0.4128 0.6958 -0.5877
vn -0.0054 0.6958 0.7182
vn 0.8262 0.3744 0.4209
vn 0.6452 -0.6941 0.3192
vn 0.6374 -0.4028 0.6568
vn 0.6374 0.4028 0.6568
vn 0.6452 0.6941 0.3192
vn 0.3493 -0.6941 -0.6294
vn 0.3493 0.6941 -0.6294
vn 0.1509 -0.4028 -0.9027
vn 0.1509 0.4028 -0.9027
vn -0.4972 0.2958 0.8156
vn -0.8728 0.2958 -0.3882
vn -0.8728 -0.2958 -0.3882
vn -0.4972 -0.2958 0.8156
vn 0.0649 0.3178 -0.9459
vn 0.3595 0.6701 -0.6493
vn 0.0649 -0.3178 -0.9459
vn 0.3595 -0.6701 -0.6493
vn 0.6650 -0.6701 0.3297
vn 0.5912 -0.3178 0.7412
vn 0.5912 0.3178 0.7412
vn 0.6650 0.6701 0.3297
vn 0.8494 -0.3744 -0.3719
vn 0.3919 -0.3744 0.8403
vn -0.4465 -0.6958 0.5626
vn 0.0365 -0.6958 -0.7173
vn 0.8494 0.3744 -0.3719
vn 0.0365 0.6958 -0.7173
vn -0.4465 0.6958 0.5626
vn 0.3919 0.3744 0.8403
vn 0.3119 -0.6941 0.6487
vn 0.0979 -0.4028 0.9100
vn 0.0979 0.4028 0.9100
vn 0.3119 0.6941 0.6487
vn 0.6627 -0.6941 -0.2809
vn 0.6627 0.6941 -0.2809
vn 0.6747 -0.4028 -0.6185
vn 0.6747 0.4028 -0.6185
vn -0.8939 0.2958 0.3366
vn -0.4487 0.2958 -0.8433
vn -0.4487 -0.2958 -0.8433
vn -0.8939 -0.2958 0.3366
vn 0.6335 0.3178 -0.7054
vn 0.6831 0.6701 -0.2903
vn 0.6335 -0.3178 -0.7054
vn 0.6831 -0.6701 -0.2903
vn 0.3210 -0.6701 0.6692
vn 0.0095 -0.3178 0.9481
vn 0.0095 0.3178 0.9481
vn 0.3210 0.6701 0.6692
vn -0.6540 0.3296 0.6809
vn -0.6585 0.3100 0.6857
vn -0.6734 0.2345 0.7011
vn -0.6761 0.2662 0.6870
vn -0.6654 0.3065 0.6807
vn -0.5879 0.4808 0.6505
vn -0.5533 0.5456 0.6294
vn -0.3658 0.7885 0.4944
usemtl 01_-_Default
s 1
f 1/1/1 2/2/2 3/3/3 4/4/4
f 5/5/5 6/6/6 7/7/7 8/8/8
f 9/9/9 10/10/10 11/11/11 12/12/12
f 13/13/13 9/9/9 12/12/12 14/14/14
f 15/15/15 13/13/13 14/14/14 16/16/16
f 17/17/17 18/18/18 19/19/19 20/20/20
f 20/20/20 19/19/19 4/4/4 3/3/3
f 17/21/17 20/22/20 3/23/3 7/24/7
f 18/18/18 17/17/17 7/7/7 6/6/6
f 19/25/19 18/26/18 6/27/6 4/28/4
f 21/29/21 22/30/22 1/31/1 4/32/4
f 23/33/23 21/29/21 4/32/4 6/34/6
f 24/35/24 23/33/23 6/34/6 5/36/5
f 25/37/25 24/35/24 5/36/5 8/38/8
f 26/39/26 25/37/25 8/38/8 7/24/7
f 27/40/27 26/39/26 7/24/7 3/23/3
f 28/41/28 27/40/27 3/23/3 2/42/2
f 22/30/22 28/41/28 2/42/2 1/31/1
f 16/43/16 14/44/14 22/30/22 21/29/21
f 15/45/15 16/43/16 21/29/21 23/33/23
f 13/46/13 15/45/15 23/33/23 24/35/24
f 9/47/9 13/46/13 24/35/24 25/37/25
f 10/48/10 9/47/9 25/37/25 26/39/26
f 11/49/11 10/48/10 26/39/26 27/40/27
f 12/50/12 11/49/11 27/40/27 28/41/28
f 14/44/14 12/50/12 28/41/28 22/30/22
f 29/51/29 30/52/30 31/53/31 32/54/32
f 33/55/33 34/56/34 35/57/35 36/58/36
f 37/59/37 38/60/38 39/61/39 40/62/40
f 41/63/41 37/59/37 40/62/40 42/64/42
f 43/65/43 41/63/41 42/64/42 44/66/44
f 45/67/45 46/68/46 47/69/47 48/70/48
f 48/70/48 47/69/47 32/54/32 31/53/31
f 45/71/45 48/72/48 31/73/31 35/74/35
f 46/68/46 45/67/45 35/57/35 34/56/34
f 47/75/47 46/76/46 34/77/34 32/78/32
f 49/79/49 50/80/50 29/81/29 32/82/32
f 51/83/51 49/79/49 32/82/32 34/84/34
f 52/85/52 51/83/51 34/84/34 33/86/33
f 53/87/53 52/85/52 33/86/33 36/88/36
f 54/89/54 53/87/53 36/88/36 35/74/35
f 55/90/55 54/89/54 35/74/35 31/73/31
f 56/91/56 55/90/55 31/73/31 30/92/30
f 50/80/50 56/91/56 30/92/30 29/81/29
f 44/93/44 42/94/42 50/80/50 49/79/49
f 43/95/43 44/93/44 49/79/49 51/83/51
f 41/96/41 43/95/43 51/83/51 52/85/52
f 37/97/37 41/96/41 52/85/52 53/87/53
f 38/98/38 37/97/37 53/87/53 54/89/54
f 39/99/39 38/98/38 54/89/54 55/90/55
f 40/100/40 39/99/39 55/90/55 56/91/56
f 42/94/42 40/100/40 56/91/56 50/80/50
f 57/101/57 58/102/58 59/103/59 60/104/60
f 61/105/61 62/106/62 63/107/63 64/108/64
f 65/109/65 66/110/66 67/111/67 68/112/68
f 69/113/69 65/109/65 68/112/68 70/114/70
f 71/115/71 69/113/69 70/114/70 72/116/72
f 73/117/73 74/118/74 75/119/75 76/120/76
f 76/120/76 75/119/75 60/104/60 59/103/59
f 73/121/73 76/122/76 59/123/59 63/124/63
f 74/118/74 73/117/73 63/107/63 62/106/62
f 75/125/75 74/126/74 62/127/62 60/128/60
f 77/129/77 78/130/78 57/131/57 60/132/60
f 79/133/79 77/129/77 60/132/60 62/134/62
f 80/135/80 79/133/79 62/134/62 61/136/61
f 81/137/81 80/135/80 61/136/61 64/138/64
f 82/139/82 81/137/81 64/138/64 63/124/63
f 83/140/83 82/139/82 63/124/63 59/123/59
f 84/141/84 83/140/83 59/123/59 58/142/58
f 78/130/78 84/141/84 58/142/58 57/131/57
f 72/143/72 70/144/70 78/130/78 77/129/77
f 71/145/71 72/143/72 77/129/77 79/133/79
f 69/146/69 71/145/71 79/133/79 80/135/80
f 65/147/65 69/146/69 80/135/80 81/137/81
f 66/148/66 65/147/65 81/137/81 82/139/82
f 67/149/67 66/148/66 82/139/82 83/140/83
f 68/150/68 67/149/67 83/140/83 84/141/84
f 70/144/70 68/150/68 84/141/84 78/130/78
f 85/151/85 86/152/86 87/153/87 88/154/87
f 89/155/88 90/156/89 86/152/86 85/151/85
f 91/157/90 92/158/91 90/156/89 89/155/88
f 93/159/92 94/160/92 92/158/91 91/157/90
